<?xml version="1.0" encoding="UTF-8"?>
<svg width="32" height="32" viewBox="0 0 32 32" fill="none" xmlns="http://www.w3.org/2000/svg">
    <!-- Background Circle -->
    <circle cx="16" cy="16" r="15" fill="url(#icon-gradient)" stroke="#2A2A2A" stroke-width="1"/>
    
    <!-- Heart Shape -->
    <path d="M16 25c-1.25 0-10-6.25-10-12.5C6 9 7.25 6.5 9.75 6.5c1.875 0 5 1.875 6.25 5 1.25-3.125 4.375-5 6.25-5 2.5 0 3.75 2.5 3.75 5C26 18.75 17.25 25 16 25z" 
          fill="url(#icon-heart-gradient)" 
          filter="url(#icon-glow)"/>
    
    <!-- Blockchain Elements -->
    <g transform="translate(16, 16)" stroke="#FFFFFF" stroke-width="0.5" stroke-linecap="round">
        <path d="M0,-7.5 L6.5,-3.75 L6.5,3.75 L0,7.5 L-6.5,3.75 L-6.5,-3.75 Z" 
              fill="none" 
              stroke-dasharray="1.25,0.625" 
              opacity="0.3"/>
        <path d="M0,-5.625 L4.875,-2.8125 L4.875,2.8125 L0,5.625 L-4.875,2.8125 L-4.875,-2.8125 Z" 
              fill="none" 
              stroke-dasharray="0.9375,0.5" 
              opacity="0.5"/>
    </g>
    
    <!-- Gradients -->
    <defs>
        <linearGradient id="icon-gradient" x1="0" y1="0" x2="32" y2="32">
            <stop offset="0%" stop-color="#1a1a1a"/>
            <stop offset="100%" stop-color="#2a2a2a"/>
        </linearGradient>
        
        <linearGradient id="icon-heart-gradient" x1="16" y1="6.5" x2="16" y2="25">
            <stop offset="0%" stop-color="#FF3366"/>
            <stop offset="100%" stop-color="#FF0066"/>
        </linearGradient>
        
        <!-- Glow Effect -->
        <filter id="icon-glow">
            <feGaussianBlur stdDeviation="0.25" result="coloredBlur"/>
            <feMerge>
                <feMergeNode in="coloredBlur"/>
                <feMergeNode in="SourceGraphic"/>
            </feMerge>
        </filter>
    </defs>
</svg>
