<?xml version="1.0" encoding="UTF-8"?>
<svg width="512" height="512" viewBox="0 0 512 512" fill="none" xmlns="http://www.w3.org/2000/svg">
    <!-- Background Circle -->
    <circle cx="256" cy="256" r="248" fill="url(#gradient)" stroke="#2A2A2A" stroke-width="16"/>
    
    <!-- Heart Shape -->
    <path d="M256 400c-20 0-160-100-160-200 0-40 20-80 60-80 30 0 80 30 100 80 20-50 70-80 100-80 40 0 60 40 60 80 0 100-140 200-160 200z" 
          fill="url(#heart-gradient)" 
          filter="url(#glow)"/>
    
    <!-- Blockchain Elements -->
    <g transform="translate(256, 256)" stroke="#FFFFFF" stroke-width="8" stroke-linecap="round">
        <!-- Hexagon pattern -->
        <path d="M0,-120 L104,-60 L104,60 L0,120 L-104,60 L-104,-60 Z" 
              fill="none" 
              stroke-dasharray="20,10" 
              opacity="0.3"/>
        <path d="M0,-90 L78,-45 L78,45 L0,90 L-78,45 L-78,-45 Z" 
              fill="none" 
              stroke-dasharray="15,8" 
              opacity="0.5"/>
    </g>
    
    <!-- Gradients -->
    <defs>
        <linearGradient id="gradient" x1="0" y1="0" x2="512" y2="512">
            <stop offset="0%" stop-color="#1a1a1a"/>
            <stop offset="100%" stop-color="#2a2a2a"/>
        </linearGradient>
        
        <linearGradient id="heart-gradient" x1="256" y1="120" x2="256" y2="400">
            <stop offset="0%" stop-color="#FF3366"/>
            <stop offset="100%" stop-color="#FF0066"/>
        </linearGradient>
        
        <!-- Glow Effect -->
        <filter id="glow">
            <feGaussianBlur stdDeviation="4" result="coloredBlur"/>
            <feMerge>
                <feMergeNode in="coloredBlur"/>
                <feMergeNode in="SourceGraphic"/>
            </feMerge>
        </filter>
    </defs>
</svg>
